# xmcd
# 
# Track frame offsets:
#     150
#     19985
#     40866
#     52640
#     69421
#     88650
#     109040
#     128573
#     143921
#     159221
#     169908
#     188183
#     216468
#     234754
#     248565
#     271275
#     289671
#     314827
#     330083
# 
# Disc length: 4582
# 
# Revision: 2
# Processed by: cddbd v1.5.2PL0 Copyright (c) Steve Scherf et al.
# Submitted via: fre:ac v1.0.31
# 
DISCID=0111e413
DTITLE=Pentangle - Sweet Child Disc 1
DYEAR=2017
DGENRE=Folk
TTITLE0=Market Song
TTITLE1=No More My Lord
TTITLE2=Turn Your Money Green
TTITLE3=Haitian Fight Song
TTITLE4=A Woman Like You
TTITLE5=Goodbye Pork-Pie Hat
TTITLE6=Three Dances: Brentzel Gay/La Rotta/The Earle Of Salisbury
TTITLE7=Watch The Stars
TTITLE8=So Early In The Spring
TTITLE9=No Exit
TTITLE10=The Time Has Come
TTITLE11=Bruton Town
TTITLE12=Hear My Call
TTITLE13=Let No Man Steal Your Thyme
TTITLE14=Bells
TTITLE15=Travellin' Song
TTITLE16=Waltz
TTITLE17=Way Behind The Sun
TTITLE18=John Donne Song
EXTD=
EXTT0=
EXTT1=
EXTT2=
EXTT3=
EXTT4=
EXTT5=
EXTT6=
EXTT7=
EXTT8=
EXTT9=
EXTT10=
EXTT11=
EXTT12=
EXTT13=
EXTT14=
EXTT15=
EXTT16=
EXTT17=
EXTT18=
PLAYORDER=
